<?xml version="1.0" encoding="utf-8"?>
<!-- Generator: Adobe Illustrator 25.1.0, SVG Export Plug-In . SVG Version: 6.00 Build 0)  -->
<svg version="1.1" id="Layer_1" xmlns="http://www.w3.org/2000/svg" xmlns:xlink="http://www.w3.org/1999/xlink" x="0px" y="0px"
	 viewBox="0 0 4000 4000" style="enable-background:new 0 0 4000 4000;" xml:space="preserve">
<style type="text/css">
	.st0{fill:#5E6C7A;}
	.st1{fill:#0F227A;}
	.st2{fill:#FFFFFF;}
	.st3{fill:#D0D4D8;}
	.st4{fill:#E52C5C;}
	.st5{fill:#009572;}
	.st6{fill:#1955A1;}
	.st7{fill:#FAC05A;}
</style>
<g>
	<g>
		<g>
			<g>
				<path class="st0" d="M1455.38,1732.73v-107.2c0-14.82-12.02-26.84-26.84-26.84h-10.71c-82.39,0-160.03,20.56-228.22,56.68
					c-8.69,4.6-13.96,13.81-13.96,23.63v53.72H1455.38z"/>
				<path class="st0" d="M2548.28,1732.73v-107.2c0-14.82,12.01-26.84,26.84-26.84h10.71c82.39,0,160.03,20.56,228.22,56.68
					c8.69,4.6,13.96,13.81,13.96,23.63v53.72H2548.28z"/>
			</g>
			<path class="st1" d="M2588.85,1645.31H1417.83c-244.61,0-442.91,198.3-442.91,442.91s198.3,442.91,442.91,442.91
				c121.52,0,231.57-48.97,311.59-128.21h547.84c80.02,79.24,190.08,128.21,311.59,128.21c244.61,0,442.91-198.3,442.91-442.91
				S2833.46,1645.31,2588.85,1645.31z"/>
			<path class="st2" d="M2588.86,2453.43c-96.83,0-188.08-37.55-256.94-105.73l-22.7-22.48h-611.76l-22.7,22.48
				c-68.86,68.18-160.11,105.73-256.94,105.73c-201.37,0-365.2-163.83-365.2-365.2s163.83-365.2,365.2-365.2h1171.04
				c201.38,0,365.2,163.83,365.2,365.2S2790.23,2453.43,2588.86,2453.43z"/>
			
				<ellipse transform="matrix(0.7071 -0.7071 0.7071 0.7071 -1060.9459 1615.0927)" class="st3" cx="1419.12" cy="2088.22" rx="286.56" ry="286.56"/>
			<path class="st1" d="M1566.57,2037.86h-97.09v-97.09c0-6.54-5.3-11.83-11.83-11.83h-77.06c-6.53,0-11.83,5.3-11.83,11.83v97.09
				h-97.09c-6.54,0-11.83,5.3-11.83,11.83v77.06c0,6.54,5.3,11.83,11.83,11.83h97.09v97.09c0,6.54,5.3,11.83,11.83,11.83h77.06
				c6.54,0,11.83-5.3,11.83-11.83v-97.09h97.09c6.54,0,11.83-5.3,11.83-11.83v-77.06
				C1578.41,2043.15,1573.11,2037.86,1566.57,2037.86z"/>
			<g>
				<rect x="1842.11" y="2178.23" class="st4" width="137.28" height="37.56"/>
				<rect x="2027.3" y="2178.23" class="st5" width="137.28" height="37.56"/>
			</g>
			
				<ellipse transform="matrix(0.7071 -0.7071 0.7071 0.7071 -717.1594 2445.0667)" class="st3" cx="2592.88" cy="2088.22" rx="286.56" ry="286.56"/>
			<g>
				<g>
					<path class="st6" d="M2525.31,1951.06c0-37.32,30.25-67.56,67.56-67.56c37.31,0,67.56,30.25,67.56,67.56
						s-30.25,67.56-67.56,67.56C2555.56,2018.63,2525.31,1988.38,2525.31,1951.06z"/>
					<path class="st7" d="M2525.31,2225.38c0-37.32,30.25-67.56,67.56-67.56c37.31,0,67.56,30.25,67.56,67.56
						s-30.25,67.57-67.56,67.57C2555.56,2292.95,2525.31,2262.7,2525.31,2225.38z"/>
				</g>
				<g>
					<path class="st4" d="M2730.04,2020.66c37.31,0,67.56,30.25,67.56,67.57s-30.25,67.56-67.56,67.56
						c-37.32,0-67.56-30.25-67.56-67.56S2692.72,2020.66,2730.04,2020.66z"/>
					<path class="st5" d="M2455.72,2020.66c37.32,0,67.57,30.25,67.57,67.57s-30.25,67.56-67.57,67.56
						c-37.31,0-67.56-30.25-67.56-67.56S2418.4,2020.66,2455.72,2020.66z"/>
				</g>
			</g>
			<rect x="1834.18" y="1928.93" class="st1" width="330.39" height="36.91"/>
		</g>
	</g>
	<g>
		<g>
			<path class="st1" d="M1393.45,2894.92v-235.4h188.32v47.08h47.08v47.08h-47.08v47.08h47.08v47.08h-47.08v47.08H1393.45z
				 M1487.61,2753.68h47.08v-47.08h-47.08V2753.68z M1487.61,2847.84h47.08v-47.08h-47.08V2847.84z"/>
			<path class="st1" d="M1827.87,2894.92v-141.24h-47.08v-47.08h-47.08v-47.08h94.16v47.08h94.16v-47.08h94.16v47.08h-47.08v47.08
				h-47.08v141.24H1827.87z"/>
			<path class="st1" d="M2168.12,2894.92V2706.6h-47.08v-47.08h188.32v47.08h-47.08v188.32H2168.12z"/>
			<path class="st1" d="M2602.53,2706.6h-94.16v47.08h94.16v47.08h-94.16v47.08h94.16v47.08h-188.32v-235.4h188.32V2706.6z"/>
		</g>
	</g>
	<g>
		<path class="st1" d="M1444.09,1493.85v-201.42h120.85v40.28h-80.57V1373h80.57v40.28h-80.57v80.57H1444.09z M1524.66,1413.29
			h40.28v40.28h-40.28V1413.29z M1564.94,1332.72h40.28V1373h-40.28V1332.72z M1564.94,1453.57h40.28v40.28h-40.28V1453.57z"/>
		<path class="st1" d="M1820.87,1332.72h-80.57V1373h80.57v40.28h-80.57v40.28h80.57v40.28h-120.85v-201.42h120.85V1332.72z"/>
		<path class="st1" d="M1955.94,1493.85v-161.13h-40.28v-40.28h120.85v40.28h-40.28v161.13H1955.94z"/>
		<path class="st1" d="M2131.3,1493.85v-201.42h120.85v40.28h-80.57V1373h80.57v40.28h-80.57v80.57H2131.3z M2211.87,1413.29h40.28
			v40.28h-40.28V1413.29z M2252.15,1332.72h40.28V1373h-40.28V1332.72z M2252.15,1453.57h40.28v40.28h-40.28V1453.57z"/>
		<path class="st1" d="M2427.51,1453.57h-40.28v-120.85h40.28V1453.57z M2508.08,1332.72h-80.57v-40.28h80.57V1332.72z
			 M2508.08,1493.85h-80.57v-40.28h80.57V1493.85z M2548.36,1453.57h-40.28v-120.85h40.28V1453.57z"/>
	</g>
</g>
</svg>
