<svg xmlns="http://www.w3.org/2000/svg" xmlns:svg="http://www.w3.org/2000/svg" id="svg4" width="16" height="16" version="1.1" viewBox="0 0 16 16" style="fill:#000"><metadata id="metadata10"/><g id="g818"><path style="stroke-width:.5;fill:#666;fill-opacity:1" id="path2" d="M 14.6955,5.4734999 C 14.574,4.9865 14.1175,4.652 13.6,4.652 13.052,4.652 12.2,4.104 11.774,3.739 11.561,3.556 11.287,3.4345 10.9825,3.4345 H 5.0175 C 4.713,3.4345 4.439,3.556 4.226,3.739 3.8,4.1345 2.948,4.652 2.4,4.652 1.8825,4.652 1.4565,4.987 1.3045,5.4734999 1.0305,6.5085 1,9.339 1,10.191 c 0,0.2435 0.0915,0.487 0.274,0.6695 0.365,0.365 1.2785,1.013 3.1045,1.074 0.0915,0 0.1825,0.0305 0.2435,0.0915 0.365,0.2435 1.248,0.539 3.3784999,0.539 C 10.131,12.565 11.0135,12.2695 11.379,12.026 11.4695,11.965 11.561,11.9345 11.6215,11.9345 13.417,11.8735 14.33,11.256 14.726,10.8605 14.9085,10.678 15,10.4345 15,10.191 15,9.3695 14.969498,6.5085 14.6955,5.4734999 Z M 4,7.9345 H 3.5 v 0.5 h -1 v -0.5 H 2 v -0.5 -0.5 h 0.5 v -0.5 H 3 3.5 v 0.5 H 4 Z m 6.5,2 h -5 c -0.276,0 -0.5,-0.224 -0.5,-0.5 v -3.5 c 0,-0.276 0.224,-0.5 0.5,-0.5 h 5 c 0.276,0 0.5,0.224 0.5,0.5 v 3.5 c 0,0.276 -0.224,0.5 -0.5,0.5 z m 2,-2.5 c 0.276,0 0.5,0.224 0.5,0.5 0,0.276 -0.224,0.5 -0.5,0.5 -0.276,0 -0.5,-0.224 -0.5,-0.5 0,-0.276 0.224,-0.5 0.5,-0.5 z m 1,-0.5 c -0.276,0 -0.5,-0.224 -0.5,-0.5 0,-0.276 0.224,-0.5 0.5,-0.5 0.276,0 0.5,0.224 0.5,0.5 0,0.276 -0.224,0.5 -0.5,0.5 z"/></g></svg>